<svg xmlns="http://www.w3.org/2000/svg" viewBox="0 0 58.27 58.26">
  <defs>
    <style>
      .cls-1 {
        fill: #bde5f9;
      }
    </style>
  </defs>
  <title>иконка отремонтировано iPhone</title>
  <g id="Слой_2" data-name="Слой 2">
    <g id="параллакс_1" data-name="параллакс 1">
      <g>
        <path class="cls-1" d="M1.6,48.94a5.46,5.46,0,0,0,7.72,7.72L27.23,38.74,19.51,31Z"/>
        <polygon class="cls-1" points="46.37 15.74 54.18 11.71 58.26 3.81 54.45 0 46.56 4.09 42.52 11.88 33.03 21.39 36.88 25.24 46.37 15.74"/>
        <path class="cls-1" d="M48.08,36.45l-.73-.07a10.82,10.82,0,0,0-3.77.71l-22.4-22.4a10.82,10.82,0,0,0,.71-3.77l-.07-.73A10.8,10.8,0,0,0,6.3,1.09l7.25,7.25a3.56,3.56,0,0,1,.82,1.31,3.63,3.63,0,0,1-6,3.83L1.15,6.23a10.8,10.8,0,0,0,9.09,15.52l.73.07a10.91,10.91,0,0,0,3.77-.71l22.39,22.4a11,11,0,0,0-.7,3.77l.08.73A10.87,10.87,0,0,0,47.35,58.2,10.68,10.68,0,0,0,52,57.11l-7.25-7.25A3.71,3.71,0,0,1,44,48.56a3.63,3.63,0,0,1,3.4-4.9,3.58,3.58,0,0,1,1.27.25,3.49,3.49,0,0,1,1.31.82L57.17,52a10.76,10.76,0,0,0,1.09-4.68A10.89,10.89,0,0,0,48.08,36.45Z"/>
      </g>
    </g>
  </g>
</svg>
