<svg xmlns="http://www.w3.org/2000/svg" viewBox="0 0 84.71 53.91">
  <defs>
    <style>
      .cls-1 {
        fill: #bde5f9;
      }
    </style>
  </defs>
  <title>иконка стаж работы</title>
  <g id="Слой_2" data-name="Слой 2">
    <g id="параллакс_1" data-name="параллакс 1">
      <path class="cls-1" d="M57.76,23.1A11.55,11.55,0,1,0,46.21,11.55,11.5,11.5,0,0,0,57.76,23.1ZM27,23.1A11.55,11.55,0,1,0,15.4,11.55,11.5,11.5,0,0,0,27,23.1Zm0,7.7c-9,0-27,4.51-27,13.48v9.63H53.91V44.28C53.91,35.31,35.93,30.81,27,30.81Zm30.81,0c-1.12,0-2.39.08-3.74.19,4.47,3.23,7.59,7.59,7.59,13.28v9.63h23.1V44.28C84.71,35.31,66.73,30.81,57.76,30.81Z"/>
    </g>
  </g>
</svg>
